HIERARCHY
ROOT Hips
{
	OFFSET	0.000000	0.000000	0.000000
	CHANNELS 6 Xposition Yposition Zposition Zrotation Xrotation Yrotation
	JOINT LeftHip
	{
		OFFSET	5.000000	0.000000	0.000000
		CHANNELS 3 Zrotation Xrotation Yrotation
		JOINT LeftKnee
		{
			OFFSET	0.000000	-17.000000	0.000000
			CHANNELS 3 Zrotation Xrotation Yrotation
			JOINT LeftAnkle
			{
				OFFSET	0.000000	-16.000000	0.000000
				CHANNELS 3 Zrotation Xrotation Yrotation
				End Site
				{
					OFFSET	0.000000	-4.000000	-2.500000
				}
			}
		}
	}
	JOINT RightHip
	{
		OFFSET	-5.000000	0.000000	0.000000
		CHANNELS 3 Zrotation Xrotation Yrotation
		JOINT RightKnee
		{
			OFFSET	0.000000	-17.000000	0.000000
			CHANNELS 3 Zrotation Xrotation Yrotation
			JOINT RightAnkle
			{
				OFFSET	0.000000	-16.000000	0.000000
				CHANNELS 3 Zrotation Xrotation Yrotation
				End Site
				{
					OFFSET	0.000000	-4.000000	-2.500000
				}
			}
		}
	}
	JOINT Chest
	{
		OFFSET	0.000000	4.000000	-1.000000
		CHANNELS 3 Zrotation Xrotation Yrotation
		JOINT LeftCollar
		{
			OFFSET	0.000000	14.000000	1.000000
			CHANNELS 3 Zrotation Xrotation Yrotation
			JOINT LeftShoulder
			{
				OFFSET	7.500000	0.000000	0.000000
				CHANNELS 3 Zrotation Xrotation Yrotation
				JOINT LeftElbow
				{
					OFFSET	0.000000	-11.000000	0.000000
					CHANNELS 3 Zrotation Xrotation Yrotation
					JOINT LeftWrist
					{
						OFFSET	0.000000	-10.000000	0.000000
						CHANNELS 3 Zrotation Xrotation Yrotation
						End Site
						{
							OFFSET	0.000000	-5.000000	0.000000
						}
					}
				}
			}
		}
		JOINT RightCollar
		{
			OFFSET	0.000000	14.000000	1.000000
			CHANNELS 3 Zrotation Xrotation Yrotation
			JOINT RightShoulder
			{
				OFFSET	-7.500000	0.000000	0.000000
				CHANNELS 3 Zrotation Xrotation Yrotation
				JOINT RightElbow
				{
					OFFSET	0.000000	-11.000000	0.000000
					CHANNELS 3 Zrotation Xrotation Yrotation
					JOINT RightWrist
					{
						OFFSET	0.000000	-10.000000	0.000000
						CHANNELS 3 Zrotation Xrotation Yrotation
						End Site
						{
							OFFSET	0.000000	-5.000000	0.000000
						}
					}
				}
			}
		}
		JOINT Neck
		{
			OFFSET	0.000000	14.000000	1.000000
			CHANNELS 3 Zrotation Xrotation Yrotation
			JOINT Head
			{
				OFFSET	0.000000	7.000000	0.000000
				CHANNELS 3 Zrotation Xrotation Yrotation
				End Site
				{
					OFFSET	0.000000	7.000000	0.000000
				}
			}
		}
	}
}
MOTION
Frames:    14
Frame Time: 0.016667
1.706225	37.227798	-14.031077	0.948988	0.951736	-4.567136	-3.927444	-2.030272	-1.447625	2.572902	7.048756	-8.050207	1.793124	0.372820	-4.307067	3.274568	-1.740095	1.589299	-2.395799	5.802851	8.030384	-0.789897	-0.149234	-1.582637	-1.536159	-4.884799	-0.429423	-0.967838	2.658313	0.044892	7.644587	-4.126874	-2.958195	2.124958	-17.277327	3.034741	-14.409932	-1.180749	-3.246348	-0.967838	2.658313	0.044892	-6.224139	-3.545176	2.099836	-2.192393	-15.801797	-13.051095	13.146147	-2.373805	0.574110	1.093123	21.061405	-0.373914	-1.475031	-27.892797	0.664158	
1.702929	37.228012	-14.032072	0.952952	0.951893	-4.549388	-3.927444	-2.030272	-1.447625	2.572902	7.048756	-8.050207	1.793124	0.372820	-4.307067	3.274568	-1.740095	1.589299	-2.395799	5.802851	8.030384	-0.789897	-0.149234	-1.582637	-1.536159	-4.884799	-0.268290	-0.967838	2.658313	0.044892	7.644587	-4.126874	-2.958195	2.124880	-17.275917	3.034718	-14.249253	-1.191256	-3.234474	-0.967838	2.658313	0.044892	-6.224139	-3.545176	2.099836	-2.192393	-15.801797	-13.051095	13.146147	-2.373805	0.574110	1.088829	20.988667	-0.372437	-1.474044	-27.820274	0.672823	
1.698376	37.228306	-14.033443	0.958428	0.952109	-4.524893	-3.927444	-2.030272	-1.447625	2.572902	7.048756	-8.050207	1.793124	0.372820	-4.307067	3.274568	-1.740095	1.589299	-2.395799	5.802851	8.030384	-0.789897	-0.149234	-1.582637	-1.536462	-5.045932	-0.268316	-0.967838	2.658313	0.044892	7.466880	-4.126775	-2.970984	2.124880	-17.275917	3.034718	-14.249253	-1.191256	-3.234474	-0.967838	2.658313	0.044892	-6.224139	-3.545176	2.099836	-2.192393	-15.801797	-13.051095	13.146147	-2.373805	0.574110	1.166564	20.988178	-0.399024	-1.398646	-27.827770	0.873688	
1.694758	37.228542	-14.034533	0.962777	0.952279	-4.505450	-3.927444	-2.030272	-1.447625	2.572902	7.048756	-8.050207	1.793124	0.372820	-4.307067	3.274568	-1.740095	1.589299	-2.395799	5.802851	8.030384	-0.789897	-0.149234	-1.582637	-1.536462	-5.045932	-0.268316	-0.967838	2.658313	0.044892	7.466880	-4.126775	-2.970984	2.124880	-17.275917	3.034718	-14.249253	-1.191256	-3.234474	-0.967838	2.658313	0.044892	-6.224139	-3.545176	2.099836	-2.192393	-15.801797	-13.051095	13.146147	-2.373805	0.574110	1.157360	20.843462	-0.395860	-1.391652	-28.005457	0.880894	
1.691136	37.228767	-14.035622	0.967133	0.952452	-4.485970	-3.927444	-2.030272	-1.447625	2.572902	7.048756	-8.050207	1.793124	0.372820	-4.307067	3.274568	-1.740095	1.589299	-2.395799	5.802851	8.030384	-0.789897	-0.149234	-1.582637	-1.374729	-5.046217	-0.257036	-0.967838	2.658313	0.044892	7.466880	-4.126775	-2.970984	2.124880	-17.275917	3.034718	-14.249253	-1.191256	-3.234474	-0.967838	2.658313	0.044892	-6.224139	-3.545176	2.099836	-2.192393	-15.801797	-13.051095	13.146147	-2.373805	0.574110	1.229564	20.770973	-0.420546	-1.585538	-28.106472	0.957915	
1.686883	37.229050	-14.036896	0.972245	0.952661	-4.463123	-3.927444	-2.030272	-1.447625	2.572902	7.048756	-8.050207	1.793124	0.372820	-4.307067	3.274568	-1.740095	1.589299	-2.395799	5.802851	8.030384	-0.789897	-0.149234	-1.582637	-1.374729	-5.046217	-0.257036	-0.967838	2.658313	0.044892	7.466880	-4.126775	-2.970984	2.124880	-17.275917	3.034718	-14.249253	-1.191256	-3.234474	-0.967838	2.658313	0.044892	-6.224139	-3.545176	2.099836	-2.192393	-15.801797	-13.051095	13.146147	-2.373805	0.574110	1.229564	20.770973	-0.420546	-1.588596	-27.945524	0.963726	
1.697060	37.229103	-14.038090	0.972994	0.952692	-4.459773	-3.927444	-2.030272	-1.447625	2.572902	7.048756	-8.050207	1.793124	0.372820	-4.307067	3.274568	-1.740095	1.589299	-2.395799	5.802851	8.030384	-0.950899	-0.149327	-1.576548	-1.536462	-5.045932	-0.268316	-0.967838	2.658313	0.044892	7.466880	-4.126775	-2.970984	2.124880	-17.275917	3.034718	-14.249253	-1.191256	-3.234474	-0.967838	2.658313	0.044892	-6.224139	-3.545176	2.099836	-2.154606	-15.644823	-13.040854	13.146147	-2.373805	0.574110	1.224653	20.699253	-0.418859	-1.584927	-28.035027	0.967342	
1.683101	37.229286	-14.038025	0.976795	0.952848	-4.442837	-3.927444	-2.030272	-1.447625	2.572902	7.048756	-8.050207	1.793124	0.372820	-4.307067	3.274568	-1.740095	1.589299	-2.395799	5.802851	8.030384	-0.789897	-0.149234	-1.582637	-1.536462	-5.045932	-0.268316	-0.967716	2.497203	0.042168	7.466880	-4.126775	-2.970984	2.124880	-17.275917	3.034718	-14.249253	-1.191256	-3.234474	-0.967716	2.497203	0.042168	-6.224139	-3.545176	2.099836	-2.154606	-15.644823	-13.040854	13.146147	-2.373805	0.574110	1.219741	20.627790	-0.417173	-1.600582	-28.132294	1.121879	
1.668927	37.235817	-13.914011	0.981360	0.953036	-4.422483	-3.927444	-2.030272	-1.447625	2.572902	7.048756	-8.050207	1.793124	0.372820	-4.307067	3.274638	-1.546751	1.591748	-2.395799	5.802851	8.030384	-0.789897	-0.149234	-1.582637	-1.374729	-5.046217	-0.257036	-0.967716	2.497203	0.042168	7.466880	-4.126775	-2.970984	2.124880	-17.275917	3.034718	-14.249253	-1.191256	-3.234474	-0.967716	2.497203	0.042168	-6.224139	-3.545176	2.099836	-2.154606	-15.644823	-13.040854	13.146147	-2.373805	0.574110	1.219741	20.627790	-0.417173	-1.600582	-28.132294	1.121879	
1.664867	37.236080	-13.915232	0.986300	0.953241	-4.400458	-3.927444	-2.030272	-1.447625	2.572902	7.048756	-8.050207	1.793124	0.372820	-4.307067	3.274638	-1.546751	1.591748	-2.395799	5.802851	8.030384	-0.789897	-0.149234	-1.582637	-1.374729	-5.046217	-0.257036	-0.967716	2.497203	0.042168	7.466880	-4.126775	-2.970984	2.124880	-17.275917	3.034718	-14.249253	-1.191256	-3.234474	-0.967716	2.497203	0.042168	-6.224139	-3.545176	2.099836	-2.154606	-15.644823	-13.040854	13.146147	-2.373805	0.574110	1.214828	20.556578	-0.415488	-1.779743	-28.225351	1.038964	
1.662935	37.236206	-13.915811	0.988650	0.953341	-4.389981	-3.927444	-2.030272	-1.447625	2.577742	7.082710	-8.050802	1.790877	0.344657	-4.467275	3.274638	-1.546751	1.591748	-2.395799	5.802851	8.030384	-0.789897	-0.149234	-1.582637	-1.374729	-5.046217	-0.257036	-0.967716	2.497203	0.042168	7.466880	-4.126775	-2.970984	2.124880	-17.275917	3.034718	-14.249253	-1.191256	-3.234474	-0.967716	2.497203	0.042168	-6.224139	-3.545176	2.099836	-2.154606	-15.644823	-13.040854	13.146147	-2.373805	0.574110	1.214828	20.556578	-0.415488	-1.779743	-28.225351	1.038964	
1.662935	37.236206	-13.915811	0.988650	0.953341	-4.389981	-3.927444	-2.030272	-1.447625	2.572902	7.048756	-8.050207	1.793124	0.372820	-4.307067	3.274638	-1.546751	1.591748	-2.395799	5.802851	8.030384	-0.789897	-0.149234	-1.582637	-1.374729	-5.046217	-0.257036	-0.967716	2.497203	0.042168	7.466880	-4.126775	-2.970984	2.124880	-17.275917	3.034718	-14.249253	-1.191256	-3.234474	-0.967716	2.497203	0.042168	-6.224139	-3.545176	2.099836	-2.154547	-15.644579	-13.040838	12.984941	-2.375655	0.563126	1.209913	20.485620	-0.413803	-1.795551	-28.323610	1.193029	
1.662935	37.236206	-13.915811	0.988650	0.953341	-4.389981	-3.927433	-2.255858	-1.447339	2.572902	7.048756	-8.050207	1.793124	0.372820	-4.307067	3.274638	-1.546751	1.591748	-2.395799	5.802851	8.030384	-0.789897	-0.149234	-1.582637	-1.374729	-5.046217	-0.257036	-0.967716	2.497203	0.042168	7.466880	-4.126775	-2.970984	2.124880	-17.275917	3.034718	-14.249253	-1.191256	-3.234474	-0.967716	2.497203	0.042168	-6.224139	-3.545176	2.099836	-2.154547	-15.644579	-13.040838	12.984941	-2.375655	0.563126	1.204997	20.414923	-0.412118	-1.788199	-28.575056	1.190312	
1.662935	37.236206	-13.915811	0.988650	0.953341	-4.389981	-3.927433	-2.255858	-1.447339	2.574551	7.060322	-8.050409	1.781022	0.202413	-4.306703	3.274638	-1.546751	1.591748	-2.395799	5.802851	8.030384	-0.789897	-0.149234	-1.582637	-1.374729	-5.046217	-0.257036	-0.967716	2.497203	0.042168	7.466880	-4.126775	-2.970984	2.124880	-17.275917	3.034718	-14.249253	-1.191256	-3.234474	-0.967716	2.497203	0.042168	-6.224139	-3.545176	2.099836	-2.154547	-15.644579	-13.040838	12.984941	-2.375655	0.563126	1.204997	20.414923	-0.412118	-1.788199	-28.575056	1.190312	
